# xmcd
#
# Track frame offsets: 
#        150
#        10175
#        20545
#        31350
#        41995
#        54300
#        64325
#        76337
#        85725
#        94725
#        108100
#        119675
#        129895
#        140145
#        150000
#        158187
#        170475
#        182167
#        191595
#        202225
#        215025
#        225670
#        238650
#        249967
#        261275
#        274260
#        288062
#
# Disc length: 4013 seconds
#
# Revision: 3
# Processed by: cddbd v1.5.2PL0 Copyright (c) Steve Scherf et al.
# Submitted via: ExactAudioCopyFreeDBPlugin 1.0
#
DISCID=7b0fab1b
DTITLE=Various Artist - Big City Soul Volume 1
DYEAR=1900
DGENRE=Northern Soul
TTITLE0=Garnet Mimms - Looking For You
TTITLE1=Sam E Solo - Love Is Not A Game
TTITLE2=Shawn Robinson - My Dear Heart
TTITLE3=Rose St. John and The Wonderettes - Mend My Broken Heart
TTITLE4=The O'Jays - Hold On
TTITLE5=Jimmy Holiday and Clyde King - Ready, Willing And Able
TTITLE6=Homer Banks - A Lot Of Love
TTITLE7=Homer Banks - Hooked By Love
TTITLE8=Danny Wagner and The Kindred Soul - I Lost A True Love
TTITLE9=The Jive Five - Then Came Heart Break
TTITLE10=Gene McDaniels - Strange Neighbourhood
TTITLE11=Eestelle Brown - Stick Close
TTITLE12=Betty Turner - Be Careful Girl
TTITLE13=The O'Jays - I'll Never Forget You
TTITLE14=June Jackson - It's What's Underneath That Counts
TTITLE15=The O'Jays - Working On Your Case
TTITLE16=Alder Ray - My Heart Is In Danger
TTITLE17=The Diplomats - Honest To Goodness
TTITLE18=The Crystals - Are You Trying To Get Rid Of Me Baby
TTITLE19=The Steve Karmen Big Band - Breakaway Part 1
TTITLE20=Dee Irwin - I Only Get This Feeling
TTITLE21=Jay and The Americans - Living Above Your Head
TTITLE22=Marva Josie - Don't
TTITLE23=Ray Pollard - It's A Sad Thing
TTITLE24=Gene McDaniels - Walk With A Winner
TTITLE25=Ray Pollard - The Drifter
TTITLE26=Timi Yuro - It'll Never Be Over For Me
EXTD=
EXTT0=
EXTT1=
EXTT2=
EXTT3=
EXTT4=
EXTT5=
EXTT6=
EXTT7=
EXTT8=
EXTT9=
EXTT10=
EXTT11=
EXTT12=
EXTT13=
EXTT14=
EXTT15=
EXTT16=
EXTT17=
EXTT18=
EXTT19=
EXTT20=
EXTT21=
EXTT22=
EXTT23=
EXTT24=
EXTT25=
EXTT26=
PLAYORDER=
